<?xml version="1.0" encoding="utf-8"?>
<svg width="100%" height="100%" fill="#121b17" viewBox="0 0 1025 500" version="1.1" xmlns:xlink="http://www.w3.org/1999/xlink" xmlns="http://www.w3.org/2000/svg">
  <defs>
    <path d="M1025 0L1025 0L1025 500L0 500L0 0L1025 0Z" id="path_1" />
    <clipPath id="clip_1">
      <use xlink:href="#path_1" clip-rule="evenodd" fill-rule="evenodd" />
    </clipPath>
  </defs>
  <g id="Frame 8" clip-path="url(#clip_1)">
    <path d="M859 127L912 127L912 340L859 340L859 127Z" id="Rectangle" fill-rule="evenodd" stroke="none" />
    <path d="M513.75 312.25L541 240L506.5 127L453 127L513.75 312.25Z" id="Vector" fill-rule="evenodd" stroke="none" />
    <path d="M605 127L656 127C656 127 655.875 127.126 559.688 375.063C515.688 478.002 452.5 485 452.5 485L452.5 440.002C452.5 440.002 488.875 424.876 512 375.063C604.813 124 605 127 605 127Z" id="Vector-2" fill-rule="evenodd" stroke="none" />
    <path d="M671 127L721 127L721 156C721 156 731.205 127.145 777 127C833.355 126.535 832.5 169.5 832.5 169.5L832.5 209.5L786 209.5C786 209.5 786.25 209.58 786 184C785.751 143.38 721.25 167.685 721 195.5C721.39 337.555 721 337.5 721 337.5L671 337.5L671 127Z" id="Vector-3" fill-rule="evenodd" stroke="none" />
    <path d="M860 90C911.875 90.0499 912 90 912 90C912 90 913.475 55.2501 960.001 12.9999C904.525 12.9499 904.5 12.9999 904.5 12.9999C904.5 12.9999 870.925 41.5499 860 90Z" id="Vector-4" fill-rule="evenodd" stroke="none" />
    <path d="M959 341.001L1011 340.001L1011 13C1011 13 971.2 40.1 959 84.5003C959.12 340.9 959 341.001 959 341.001Z" id="Vector-5" fill-rule="evenodd" stroke="none" />
    <path d="M386.002 185.001L437.003 185.001C437.003 185.001 437.254 185.126 437.003 169.001C437.253 120.126 342.002 124.5 342.002 124.5C342.002 124.5 249.938 119.376 250.5 187.501C252 262.253 285.151 249.353 340.502 251.003C403.252 247.691 394.002 278.004 394.002 278.004C394.002 278.004 399.94 306.943 350.002 306.505C295.064 307.943 300.501 272.504 300.501 272.504C300.501 272.504 300.313 272.566 250.5 272.504C246 345.566 307.501 341.003 307.501 341.003C307.501 341.003 307.439 340.941 379.002 341.003C452.44 340.129 441.753 283.223 445.003 277.504C441.393 270.356 461.128 204.627 347.502 211.502C328.564 210.564 301.126 215.064 300.501 187.501C302.376 181.189 295.813 159.063 347.502 160.001C392.002 159.688 386.002 185.001 386.002 185.001Z" id="Vector-6" fill-rule="evenodd" stroke="none" />
    <path d="M74.0005 190.001L23 190.001C23 190.001 16.7501 126 79.5005 126C111.816 126 111.797 126.063 111.821 126.094C111.844 126.125 111.909 126.125 144.001 126C215.126 125.75 208.002 190.001 208.002 190.001L208.002 340.003L158.501 339.503L158.501 312.003C158.501 312.003 153.314 341.252 116.501 341.001C96.4368 341.001 95.4852 341.085 95.487 341.134C95.4871 341.137 95.4897 341.139 95.4923 341.141C95.4952 341.144 95.4982 341.146 95.4981 341.148C95.4962 341.188 94.5019 341.179 74.2505 341.001C13.3752 341.377 15.9999 295.502 15.9999 295.502L15.9999 255.501C15.9999 255.501 14.4717 209.623 73.8471 209.623C99.1237 209.498 99.1668 209.499 99.174 209.515C99.1812 209.531 99.1523 209.564 124.501 209.501C147.376 209.626 158.501 232.001 158.501 232.001L158.501 190.001C158.501 190.001 162.126 160.75 124.501 161C112.133 161 112.157 161 112.157 161L100.001 161C72.1255 161 74.0005 190.001 74.0005 190.001ZM158 273C158 257.534 145.466 245 130 245L93 245C77.5339 245 65 257.534 65 273L65 277C65 292.466 77.5339 305 93 305L130 305C145.466 305 158 292.466 158 277L158 273Z" id="Vector-7-Subtract" fill-rule="evenodd" stroke="none" />
  </g>
</svg>