<?xml version="1.0" encoding="utf-8"?>
<svg width="100%" height="100%" fill="#b1f1cb" viewBox="0 0 2242 500" version="1.1" xmlns:xlink="http://www.w3.org/1999/xlink" xmlns="http://www.w3.org/2000/svg">
  <defs>
    <path d="M2242 0L2242 0L2242 500L0 500L0 0L2242 0Z" id="path_1" />
    <clipPath id="clip_1">
      <use xlink:href="#path_1" clip-rule="evenodd" fill-rule="evenodd" />
    </clipPath>
  </defs>
  <g id="Frame 6" clip-path="url(#clip_1)">
    <path d="M2242 0L2242 0L2242 500L0 500L0 0L2242 0Z" id="Frame-6" fill="#FFFFFF" fill-opacity="0" stroke="none" />
    <path d="M324 58L534 58L534 132L414 132L414 206L530 206L530 282L414 282L414 368L537 368L537 442L324 442L324 58Z" id="Vector-2" fill-rule="evenodd" stroke="none" />
    <path d="M579 343.001C579.188 162.19 579 162.001 579 162.001C579 162.001 570.312 55.875 672.501 50.5C734.061 50.4374 672.502 50.5 734.001 50.5C775.816 54.5625 814.439 74.8126 823.501 130.501C823.502 189.5 823.501 189.501 823.501 189.501L734.001 189.501L734.001 153.001C734.001 153.001 732.814 117 701.501 117C667.063 116.688 667.499 153.001 667.499 153.001L667.499 343.001C667.499 343.001 664.563 384.816 701.501 384.504C732.813 383.879 734.001 343.001 734.001 343.001L734.001 293.502L827.001 293.502C827.001 293.502 827.313 293.503 827.001 343.001C827.001 460.628 694.501 451.502 694.501 451.502C694.501 451.502 576.313 465.066 579 343.001Z" id="Vector-3" fill-rule="evenodd" stroke="none" />
    <path d="M867 442L867 58L957 58L957 213L1029.5 58L1120 58L1038.5 226L1126 442L1029.5 442L981 309.5L957 347L957 442L867 442Z" id="Vector-4" fill-rule="evenodd" stroke="none" />
    <path d="M34 57L34 441.003C34 441.003 34.3402 441.118 180.001 441.003C238.622 440.885 283.908 407.515 283.843 329.175C283.777 258.834 233.501 239.002 233.501 239.002C233.501 239.002 277.682 221.281 277.002 158.501C277.282 120.68 266.712 57.7351 165.501 57C35.81 57.225 34 57 34 57ZM145.5 128C167.871 128 186 146.129 186 168.5C186 190.871 167.871 209 145.5 209L126 209L126 128L145.5 128ZM186 327C186 301.591 165.409 281 140 281L128 281L128 373L140 373C165.409 373 186 352.409 186 327Z" id="Vector-Subtract" fill-rule="evenodd" stroke="none" />
    <path d="M1154 442L1154 58L1244 58L1244 205L1309.5 205L1309.5 58L1398.5 58L1398.5 442L1309.5 442L1309.5 281.5L1244 281.5L1244 442L1154 442Z" id="Vector-5" fill-rule="evenodd" stroke="none" />
    <path d="M1732 441L1732 58L1947.5 58L1947.5 133L1823.5 133L1823.5 203L1938.5 203L1938.5 278.5L1823.5 278.5L1823.5 441L1732 441Z" id="Vector-6" fill-rule="evenodd" stroke="none" />
    <path d="M1990.5 441L1990.5 58L2206 58L2206 133L2082 133L2082 203L2197 203L2197 278.5L2082 278.5L2082 441L1990.5 441Z" id="Vector-7" fill-rule="evenodd" stroke="none" />
    <path d="M1565 46C1441.88 45.5 1440 147 1440 147L1440 339.001C1440 339.001 1432.25 455 1565 455C1694.75 455 1688.5 339.001 1688.5 339.001L1688.5 147C1688.5 147 1691.13 47 1565 46ZM1594 148.5C1594 131.653 1580.35 118 1563.5 118C1546.65 118 1533 131.653 1533 148.5L1533 350.5C1533 367.347 1546.65 381 1563.5 381C1580.35 381 1594 367.347 1594 350.5L1594 148.5Z" id="Vector-8-Subtract" fill-rule="evenodd" stroke="none" />
  </g>
</svg>