<svg version="1.1" xmlns="http://www.w3.org/2000/svg" xmlns:xlink="http://www.w3.org/1999/xlink" width="100%" height="100%" viewBox="0,0,256,256"><g transform="translate(-35.84,-35.84) scale(1.28,1.28)"><g fill="#121b17" fill-rule="nonzero" stroke="none" stroke-width="1" stroke-linecap="butt" stroke-linejoin="miter" stroke-miterlimit="10" stroke-dasharray="" stroke-dashoffset="0" font-family="none" font-weight="none" font-size="none" text-anchor="none" style="mix-blend-mode: normal"><g transform="translate(0.475,-0.419)"><g><g><path d="M100.502,71.69c-26.005,-4.736 -46.567,0.221 -54.762,14.415c-6.115,10.592 -4.367,24.635 4.24,39.646c0.46263,0.84865 1.34822,1.38057 2.31474,1.39033c0.96651,0.00976 1.86266,-0.50418 2.34233,-1.34332c0.47967,-0.83914 0.46779,-1.87213 -0.03106,-2.70001c-7.752,-13.522 -9.261,-25.641 -4.247,-34.326c6.808,-11.791 25.148,-16.213 49.187,-11.835c1.43731,0.2393 2.80063,-0.71924 3.06181,-2.15273c0.26118,-1.43349 -0.67647,-2.81127 -2.10581,-3.09427zM63.503,143.997c10.515,11.555 24.176,22.394 39.756,31.388c37.723,21.78 77.883,27.601 97.675,14.106c0.80573,-0.52913 1.26323,-1.45186 1.19665,-2.4135c-0.06659,-0.96164 -0.6469,-1.81251 -1.51787,-2.22554c-0.87097,-0.41303 -1.89703,-0.32393 -2.68378,0.23304c-17.714,12.078 -55.862,6.548 -92.003,-14.318c-15.114,-8.726 -28.343,-19.222 -38.478,-30.36c-0.64021,-0.70904 -1.61075,-1.02151 -2.54438,-0.81917c-0.93363,0.20234 -1.68773,0.88858 -1.97695,1.79905c-0.28922,0.91047 -0.06939,1.90609 0.57632,2.61012z"></path><path d="M194.62,140.753c17.028,-20.116 22.973,-40.348 14.795,-54.512c-6.017,-10.423 -18.738,-15.926 -35.645,-16.146c-1.45796,0.00214 -2.64399,1.17466 -2.66285,2.63249c-0.01886,1.45784 1.13644,2.66064 2.59385,2.70051c15.205,0.198 26.165,4.939 31.096,13.48c6.792,11.765 1.49,29.807 -14.248,48.399c-0.62843,0.72569 -0.81836,1.73313 -0.49731,2.63783c0.32105,0.9047 1.10354,1.56706 2.04883,1.73429c0.9453,0.16723 1.90753,-0.18647 2.51948,-0.92612zM150.859,72.578c-15.396,3.299 -31.784,9.749 -47.522,18.835c-38.942,22.483 -64.345,55.636 -60.817,79.675c0.12801,0.95198 0.75806,1.76158 1.64944,2.1195c0.89138,0.35792 1.90636,0.20885 2.65719,-0.39024c0.75083,-0.5991 1.12149,-1.55567 0.97037,-2.50426c-3.133,-21.344 20.947,-52.769 58.207,-74.281c15.267,-8.815 31.135,-15.06 45.972,-18.239c0.94506,-0.18628 1.71624,-0.86768 2.01747,-1.78262c0.30123,-0.91493 0.0857,-1.9212 -0.56385,-2.63249c-0.64955,-0.71129 -1.63217,-1.01705 -2.57062,-0.79989z"></path><path d="M87.77,187.753c8.904,24.86 23.469,40.167 39.847,40.167c11.945,0 22.996,-8.143 31.614,-22.478c0.50763,-0.81724 0.53576,-1.84454 0.07362,-2.68834c-0.46214,-0.8438 -1.34291,-1.3733 -2.3049,-1.38566c-0.96199,-0.01236 -1.85607,0.49435 -2.33973,1.326c-7.745,12.883 -17.258,19.892 -27.043,19.892c-13.605,0 -26.596,-13.652 -34.825,-36.63c-0.30678,-0.91582 -1.08473,-1.59421 -2.03378,-1.77351c-0.94905,-0.1793 -1.92087,0.16851 -2.54063,0.90928c-0.61976,0.74077 -0.79059,1.75872 -0.4466,2.66123zM169.092,182.89c4.61,-14.728 7.085,-31.718 7.085,-49.423c0,-44.179 -15.463,-82.263 -37.487,-92.042c-1.33827,-0.56052 -2.87911,0.05161 -3.46788,1.3777c-0.58877,1.32608 -0.00943,2.87956 1.30388,3.4963c19.643,8.723 34.317,44.866 34.317,87.168c0,17.177 -2.397,33.63 -6.84,47.83c-0.30039,0.9138 -0.08543,1.91856 0.56255,2.62947c0.64798,0.71091 1.62857,1.0178 2.56623,0.80314c0.93765,-0.21466 1.68706,-0.9176 1.96122,-1.83961zM219.316,180.278c0,-7.049 -5.714,-12.763 -12.763,-12.763c-7.049,0 -12.763,5.714 -12.763,12.763c0,7.049 5.714,12.763 12.763,12.763c7.049,0 12.763,-5.714 12.763,-12.763zM213.983,180.278c0,4.10348 -3.32652,7.43 -7.43,7.43c-4.10348,0 -7.43,-3.32652 -7.43,-7.43c0,-4.10348 3.32652,-7.43 7.43,-7.43c4.10348,0 7.43,3.32652 7.43,7.43zM48.497,193.041c7.05,0 12.764,-5.714 12.764,-12.763c0,-7.049 -5.715,-12.763 -12.764,-12.763c-7.048,0 -12.763,5.714 -12.763,12.763c0,7.049 5.715,12.763 12.763,12.763zM48.497,187.708c-4.10348,0 -7.43,-3.32652 -7.43,-7.43c0,-4.10348 3.32652,-7.43 7.43,-7.43c4.10348,0 7.43,3.32652 7.43,7.43c0,4.10348 -3.32652,7.43 -7.43,7.43z"></path><path d="M127.617,54.444c7.049,0 12.763,-5.714 12.763,-12.763c0,-7.049 -5.714,-12.763 -12.763,-12.763c-7.049,0 -12.763,5.714 -12.763,12.763c0,7.049 5.714,12.763 12.763,12.763zM127.617,49.111c-4.10348,0 -7.43,-3.32652 -7.43,-7.43c0,-4.10348 3.32652,-7.43 7.43,-7.43c4.10348,0 7.43,3.32652 7.43,7.43c0,4.10348 -3.32652,7.43 -7.43,7.43zM129.566,142.493c-4.985,1.077 -9.896,-2.091 -10.975,-7.076c-1.07592,-4.98473 2.09168,-9.89818 7.076,-10.976c4.985,-1.077 9.896,2.091 10.976,7.076c1.077,4.985 -2.091,9.897 -7.077,10.976z"></path></g></g></g></g></g></svg>