<?xml version="1.0" encoding="utf-8"?>
<svg width="100%" height="100%" fill="#b1f1cb" viewBox="0 0 500 500" version="1.1" xmlns:xlink="http://www.w3.org/1999/xlink" xmlns="http://www.w3.org/2000/svg">
  <defs>
    <path d="M500 0L500 0L500 500L0 500L0 0L500 0Z" id="path_1" />
    <clipPath id="clip_1">
      <use xlink:href="#path_1" clip-rule="evenodd" fill-rule="evenodd" />
    </clipPath>
  </defs>
  <g id="Frame 5" clip-path="url(#clip_1)">
    <path d="M189.228 39.6477C208.693 46.7321 218.725 68.2476 211.641 87.7119L136.739 293.505C129.654 312.969 108.139 323.002 88.6744 315.917L88.6744 315.917C69.2101 308.833 59.1773 287.317 66.2617 267.853L141.164 62.0604C148.249 42.5961 169.764 32.5632 189.228 39.6477Z" id="Rectangle" stroke="none" />
    <path d="M306.238 39.8258C325.703 46.9102 335.736 68.4257 328.651 87.89L201.078 438.395C193.993 457.86 172.478 467.892 153.013 460.808L153.013 460.808C133.549 453.724 123.516 432.208 130.601 412.744L258.174 62.2385C265.259 42.7742 286.774 32.7413 306.238 39.8258Z" id="Rectangle-2" stroke="none" />
    <path d="M424.238 38.8258C443.703 45.9102 453.736 67.4257 446.651 86.89L319.078 437.395C311.993 456.86 290.478 466.892 271.013 459.808L271.013 459.808C251.549 452.724 241.516 431.208 248.601 411.744L376.174 61.2385C383.259 41.7742 404.774 31.7413 424.238 38.8258Z" id="Rectangle-3" stroke="none" />
  </g>
</svg>