<?xml version="1.0" encoding="utf-8"?>
<svg width="100%" height="100%" fill="#121b17" viewBox="0 0 2387 500" version="1.1" xmlns:xlink="http://www.w3.org/1999/xlink" xmlns="http://www.w3.org/2000/svg">
  <defs>
    <path d="M2387 0L2387 0L2387 500L0 500L0 0L2387 0Z" id="path_1" />
    <clipPath id="clip_1">
      <use xlink:href="#path_1" clip-rule="evenodd" fill-rule="evenodd" />
    </clipPath>
  </defs>
  <g id="Frame 6" clip-path="url(#clip_1)">
    <path d="M1689.67 302.75C1689.67 326.685 1680.07 344.9 1660.44 357.821C1640.82 370.742 1616.39 377.45 1586.7 377.45C1560.34 377.929 1536.87 371.716 1515.8 359.262C1494.24 346.794 1483.71 328.126 1483.71 302.751L1483.71 69.0241L1377.39 69.0241L1377.39 311.378C1377.39 337.713 1384.55 359.742 1398.96 376.997C1412.84 394.224 1430.56 408.119 1452.09 418.653C1473.66 429.051 1496.55 436.458 1520.13 440.668C1542.12 444.596 1564.37 446.843 1586.71 447.389C1604.89 447.389 1625.96 445.468 1649.91 441.628C1674.33 437.335 1697.3 430.147 1718.88 420.079C1740.44 409.545 1758.63 395.65 1773.48 377.929C1788.8 360.221 1795.98 338.178 1795.98 311.377L1795.98 69.0225L1689.67 69.0225L1689.67 302.749" id="Shape-Path" fill-rule="evenodd" stroke="none" />
    <path d="M2104.9 387.997C2068.01 388.477 2039.28 376.502 2019.17 352.554C1999.06 328.125 1988.99 295.096 1989.46 252.466C1989.46 211.276 1999.06 178.219 2017.25 153.804C2035.92 128.415 2065.15 116.921 2104.9 116.921C2143.21 117.4 2170.5 126.988 2185.82 146.616C2201.16 166.258 2211.69 189.246 2217.42 215.582L2342.44 215.102C2334.29 164.818 2311.31 126.028 2273.96 99.6796C2236.12 72.8639 2181.04 58.9834 2108.72 58.0089C2026.84 57.5426 1966.96 75.2641 1928.64 111.187C1890.32 147.097 1871.64 194.515 1872.13 252.466C1872.61 325.259 1895.6 375.543 1941.58 403.318C1987.06 431.574 2043.1 445.949 2108.72 446.909C2181.04 447.855 2236.12 433.974 2273.96 405.225C2311.31 376.997 2334.29 338.18 2342.44 288.856L2217.42 288.856C2205.94 354.461 2168.59 387.517 2104.9 387.998" id="Shape-Path"  fill-rule="evenodd" stroke="none" />
    <path d="M1199.71 318.085L994.736 69.0233L892.247 69.0233L892.247 435.401L994.736 435.401L994.736 200.728L1184.87 435.401L1302.2 435.401L1302.2 69.0233L1199.71 69.0233L1199.71 318.085" id="Shape-Path" fill-rule="evenodd" stroke="none" />
    <path d="M140.329 142.31L393.204 142.31L393.204 69.0233L34 69.0233L34 435.401L140.329 435.401L140.329 274.014L356.335 274.014L356.335 204.569L140.329 204.569L140.329 142.31" id="Shape-Path" fill-rule="evenodd" stroke="none" />
    <path d="M546.457 69.0233L652.772 69.0233L816.107 435.401L709.778 435.401L678.642 362.142L521.068 362.142L489.959 435.401L383.63 435.401L388.403 424.881L546.457 69.0233ZM546.457 303.244L653.252 303.244L599.607 178.713L546.457 303.244Z" id="Shape-Path-Subtract"  fill-rule="evenodd" stroke="none" />
  </g>
</svg>