<?xml version="1.0" encoding="utf-8"?>
<svg width="100%" height="100%" fill="#b1f1cb" viewBox="0 0 500 500" version="1.1" xmlns:xlink="http://www.w3.org/1999/xlink" xmlns="http://www.w3.org/2000/svg">
  <defs>
    <path d="M500 0L500 0L500 500L0 500L0 0L500 0Z" id="path_1" />
    <clipPath id="clip_1">
      <use xlink:href="#path_1" clip-rule="evenodd" fill-rule="evenodd" />
    </clipPath>
  </defs>
  <g id="Frame 2" clip-path="url(#clip_1)">
    <path d="M0 25L0 475L25 500L475 500L500 475L500 25L475 3.05176e-05L445.501 3.46568e-05L445.501 189L361.001 189L361.001 240L326 240L326 285.5L361.001 285.5L361.001 331.5L445.501 331.5L445.501 372L361.001 372L361.001 417.5L326 417.5L326 107L361.001 107L361.001 150.5L445.501 150.011L445.501 3.46568e-05L280.5 3.46568e-05L280.5 240L237.5 240L237.5 189L166 189L166 331.5L237.5 331.5L237.5 285.5L280.5 285.5L280.5 417.5L237.5 417.5L237.5 372L122.5 372L122.5 189L29.5 189L29.5 150.5L237.5 150.011L237.5 107L280.5 107.015L280.5 3.05176e-05L25 3.05176e-05L0 25Z" id="Vector" fill-rule="evenodd" stroke="none" />
    <path d="M-0.0004 25C-0.0004 11.1929 11.1925 0 24.9996 0C38.8067 0 49.9996 11.1929 49.9996 25C49.9996 38.8071 38.8067 50 24.9996 50C11.1925 50 -0.0004 38.8071 -0.0004 25Z" id="Oval" fill-rule="evenodd" stroke="none" />
    <path d="M0 475C0 461.193 11.1929 450 25 450C38.8071 450 50 461.193 50 475C50 488.807 38.8071 500 25 500C11.1929 500 0 488.807 0 475Z" id="Oval" fill-rule="evenodd" stroke="none" />
    <path d="M450 475C450 461.193 461.193 450 475 450C488.807 450 500 461.193 500 475C500 488.807 488.807 500 475 500C461.193 500 450 488.807 450 475Z" id="Oval" fill-rule="evenodd" stroke="none" />
    <path d="M450 25C450 11.1929 461.193 0 475 0C488.807 0 500 11.1929 500 25C500 38.8071 488.807 50 475 50C461.193 50 450 38.8071 450 25Z" id="Oval" fill-rule="evenodd" stroke="none" />
  </g>
</svg>