<?xml version="1.0" encoding="utf-8"?>
<svg width="100%" height="100%" fill="#121b17" viewBox="0 0 500 500" version="1.1" xmlns:xlink="http://www.w3.org/1999/xlink" xmlns="http://www.w3.org/2000/svg">
  <defs>
    <path d="M500 0L500 0L500 500L0 500L0 0L500 0Z" id="path_1" />
    <clipPath id="clip_1">
      <use xlink:href="#path_1" clip-rule="evenodd" fill-rule="evenodd" />
    </clipPath>
  </defs>
  <g id="Frame 2" clip-path="url(#clip_1)">
    <path d="M17.2813 395.322L92.5124 350.01L450.518 350.009C450.518 350.009 450.539 350.015 450.518 24.501C450.506 10.6042 442.96 0.498962 429.517 0.500245C351.387 0.67182 320 0.5 320 0.5L320 113.5L296.008 113.453L296.008 237.507L320.509 237.507L320.509 273.008L223.009 273.008L223.009 237.507L247.51 237.507L247.51 113.504L223.009 113.504L223.012 79.7488L320 79.76L320 0.5L92.6599 0.430259L92.5224 0.410278L17 46.0017L17.2813 395.322Z" id="Vector" fill-rule="evenodd" stroke="none" />
    <path d="M485.005 360L485.005 80.0001L455 80L455 360L485.005 360Z" id="Vector-2" fill-rule="evenodd" stroke="none" />
    <path d="M455.002 356L370.002 356C370.002 356 370.006 408.997 370.002 436.501C365.377 455.751 354.127 460.001 338.502 460.001C322.877 460.001 309.752 454.876 307.502 436.501C307.627 424.126 307.502 424.876 307.502 409.001C309.252 392.251 323.377 384.5 338.502 384.5C353.627 384.5 369.752 390.626 370.002 409.001C370.002 396.126 370.002 356 370.002 356L296.002 356C296.002 356 295.877 395.563 296.002 413.501C295.939 425.126 285.001 428.501 285.001 428.501C285.001 428.501 288.439 435.938 293.002 445.001C294.789 448.706 299.002 446.5 299.002 446.5L299.002 458.501L295.939 460.001C295.939 460.001 299.377 458.337 295.939 460.001C295.548 460.392 291.236 461.251 287.001 460.001C282.767 458.751 282.314 457.814 279.001 455.001C273.689 445.126 268.001 433.001 268.001 433.001L259.501 433.001L259.501 460.001L241.001 460.001L241.001 386C241.001 386 261.757 385.903 275.057 386.037C288.487 385.971 295.903 394.709 295.939 403.5C296.025 392.691 295.939 356 295.939 356L230.001 356L230.001 402.001C230.001 402.001 230.075 405.35 230.001 415C229.926 426.45 221.626 435.001 207.001 435.001C195.876 434.951 194.501 435.001 194.501 435.001L194.501 460.001L176.001 460.001L176.001 386C176.001 386 193.921 385.985 207.001 386C221.001 386.056 229.938 392.189 230.001 401.814C230 388.564 230.001 356 230.001 356L93.001 356L58.0009 377.5C58.0009 377.5 57.8759 456.001 58.0009 475.001C58.001 493.376 68.5009 499 81.501 499.001C110.001 498.751 485 499.001 485 499.001L485 356L455.002 356Z" id="Vector-3" fill-rule="evenodd" stroke="none" />
    <path d="M295.5 356L296.5 356L296.5 399L295.5 399L295.5 356Z" id="Rectangle-4" fill-rule="evenodd" stroke="none" />
    <path d="M229.5 356L230.5 356L230.5 399L229.5 399L229.5 356Z" id="Rectangle-5" fill-rule="evenodd" stroke="none" />
    <path d="M369.5 356L370.5 356L370.5 402L369.5 402L369.5 356Z" id="Rectangle-6" fill-rule="evenodd" stroke="none" />
    <path d="M339 397C346.733 397 353 403.267 353 411L353 434C353 441.733 346.733 448 339 448L339 448C331.267 448 325 441.733 325 434L325 411C325 403.267 331.267 397 339 397Z" id="Rectangle" stroke="none" />
    <path d="M267 397C273.628 397 279 402.372 279 409L279 409C279 415.628 273.628 421 267 421L259 421L259 397L267 397Z" id="Rectangle-2" stroke="none" />
    <path d="M202 398C208.628 398 214 403.372 214 410L214 410C214 416.628 208.628 422 202 422L194 422L194 398L202 398Z" id="Rectangle-3" stroke="none" />
  </g>
</svg>