<?xml version="1.0" encoding="utf-8"?>
<svg width="512px" height="512px" viewBox="0 0 512 512" version="1.1" xmlns:xlink="http://www.w3.org/1999/xlink" xmlns="http://www.w3.org/2000/svg">
  <defs>
    <linearGradient gradientUnits="objectBoundingBox" x1="0" y1="0.5" x2="0.9691358" y2="0.5" id="gradient_1">
      <stop offset="0%" stop-color="#33B074" />
      <stop offset="100%" stop-color="#047857" />
    </linearGradient>
    <path d="M512 0L512 0L512 512L0 512L0 0L512 0Z" id="path_1" />
    <path d="M282 4.38405C263.41 1.32405 236.2 -0.0859528 217.73 0.00404549C200.418 0.0240955 183.139 1.48918 166.07 4.38402C120.33 12.384 112 29.084 112 59.924L112 96.0041L224 96.0041L224 112.004L75.6202 112.004C34.0602 112.004 0.330156 161.674 0.000154495 223.124C0.000154495 223.414 0.000154495 223.704 0.000154495 224.004C-0.014677 234.741 1.03333 245.46 3.12889 255.998C12.4189 302.278 41.3589 335.998 75.6189 335.998L96.0002 335.998L96.0002 282.004C96.0002 250.704 116.84 222.054 151 215.904L160.87 214.674L282 214.674C287.088 214.694 292.154 214.021 297.06 212.674C320.128 206.514 336.131 185.56 336 161.684L336 59.924C336 31.004 311.32 9.19404 282 4.38405L282 4.38405ZM162.93 73.504C154.679 73.5323 147.225 68.5798 144.054 60.9617C140.883 53.3436 142.622 44.5652 148.456 38.7304C154.291 32.8956 163.07 31.1573 170.688 34.3281C178.306 37.499 183.258 44.9525 183.23 53.204C183.233 58.5866 181.096 63.7518 177.289 67.5597C173.482 71.3677 168.317 73.5061 162.932 73.504L162.93 73.504Z" id="path_2" />
    <path d="M331.28 73C320.58 30.39 292.87 0 260.38 0L242.67 0L242.67 47.45C242.67 87.02 216.67 115.67 184.93 120.58C181.724 121.077 178.484 121.328 175.24 121.33L54.08 121.33C48.9408 121.325 43.8222 121.98 38.85 123.28C16.54 129.14 0 147.7 0 171.77L0 273.54C0 302.54 29.14 319.54 57.73 327.85C91.94 337.8 129.21 339.6 170.15 327.85C197.34 320.08 224 304.37 224 273.54L224 240L112 240L112 224L260.38 224C289.82 224 315.33 199.07 327.83 162.69C333.32 146.357 336.08 129.231 336 112C336.028 98.8537 334.443 85.7558 331.279 72.9979L331.28 73ZM172.51 260C180.762 259.972 188.215 264.924 191.386 272.542C194.557 280.16 192.818 288.939 186.984 294.774C181.149 300.608 172.37 302.347 164.752 299.176C157.134 296.005 152.182 288.552 152.21 280.3C152.207 274.917 154.344 269.752 158.151 265.944C161.958 262.136 167.123 259.998 172.508 260L172.51 260Z" id="path_3" />
    <clipPath id="clip_1">
      <use xlink:href="#path_1" clip-rule="evenodd" fill-rule="evenodd" />
    </clipPath>
    <clipPath id="clip_2">
      <use xlink:href="#path_2" clip-rule="evenodd" fill-rule="evenodd" />
    </clipPath>
    <clipPath id="clip_3">
      <use xlink:href="#path_3" clip-rule="evenodd" fill-rule="evenodd" />
    </clipPath>
  </defs>
  <g id="python_accessible" clip-path="url(#clip_1)">
    <path d="M512 0L512 0L512 512L0 512L0 0L512 0Z" id="python_accessible" fill="none" stroke="none" />
    <g id="Mask-5-Mask" transform="translate(31.999817 31.995972)">
      <path d="M282 4.38405C263.41 1.32405 236.2 -0.0859528 217.73 0.00404549C200.418 0.0240955 183.139 1.48918 166.07 4.38402C120.33 12.384 112 29.084 112 59.924L112 96.0041L224 96.0041L224 112.004L75.6202 112.004C34.0602 112.004 0.330156 161.674 0.000154495 223.124C0.000154495 223.414 0.000154495 223.704 0.000154495 224.004C-0.014677 234.741 1.03333 245.46 3.12889 255.998C12.4189 302.278 41.3589 335.998 75.6189 335.998L96.0002 335.998L96.0002 282.004C96.0002 250.704 116.84 222.054 151 215.904L160.87 214.674L282 214.674C287.088 214.694 292.154 214.021 297.06 212.674C320.128 206.514 336.131 185.56 336 161.684L336 59.924C336 31.004 311.32 9.19404 282 4.38405L282 4.38405ZM162.93 73.504C154.679 73.5323 147.225 68.5798 144.054 60.9617C140.883 53.3436 142.622 44.5652 148.456 38.7304C154.291 32.8956 163.07 31.1573 170.688 34.3281C178.306 37.499 183.258 44.9525 183.23 53.204C183.233 58.5866 181.096 63.7518 177.289 67.5597C173.482 71.3677 168.317 73.5061 162.932 73.504L162.93 73.504Z" id="Mask" fill="#B1F1CB" fill-rule="evenodd" stroke="none" />
      <g clip-path="url(#clip_2)">
        <path d="M-31.9998 -29.996L468 -29.996L468 470.004L-31.9998 470.004L-31.9998 -29.996Z" id="Mask-5" fill="url(#gradient_1)" fill-rule="evenodd" stroke="none" />
      </g>
    </g>
    <g id="Mask-6-Mask" transform="translate(144 144)">
      <path d="M331.28 73C320.58 30.39 292.87 0 260.38 0L242.67 0L242.67 47.45C242.67 87.02 216.67 115.67 184.93 120.58C181.724 121.077 178.484 121.328 175.24 121.33L54.08 121.33C48.9408 121.325 43.8222 121.98 38.85 123.28C16.54 129.14 0 147.7 0 171.77L0 273.54C0 302.54 29.14 319.54 57.73 327.85C91.94 337.8 129.21 339.6 170.15 327.85C197.34 320.08 224 304.37 224 273.54L224 240L112 240L112 224L260.38 224C289.82 224 315.33 199.07 327.83 162.69C333.32 146.357 336.08 129.231 336 112C336.028 98.8537 334.443 85.7558 331.279 72.9979L331.28 73ZM172.51 260C180.762 259.972 188.215 264.924 191.386 272.542C194.557 280.16 192.818 288.939 186.984 294.774C181.149 300.608 172.37 302.347 164.752 299.176C157.134 296.005 152.182 288.552 152.21 280.3C152.207 274.917 154.344 269.752 158.151 265.944C161.958 262.136 167.123 259.998 172.508 260L172.51 260Z" id="Mask" fill="#B1F1CB" fill-rule="evenodd" stroke="none" />
      <g clip-path="url(#clip_3)">
        <path d="M-144 -142L356 -142L356 358L-144 358L-144 -142Z" id="Mask-6" fill="url(#gradient_1)" fill-rule="evenodd" stroke="none" />
      </g>
    </g>
  </g>
</svg>