<?xml version="1.0" encoding="utf-8"?>
<svg width="100%" height="100%" fill="#b1f1cb" viewBox="0 0 500 500" version="1.1" xmlns:xlink="http://www.w3.org/1999/xlink" xmlns="http://www.w3.org/2000/svg">
  <defs>
    <path d="M500 0L500 0L500 500L0 500L0 0L500 0Z" id="path_1" />
    <clipPath id="clip_1">
      <use xlink:href="#path_1" clip-rule="evenodd" fill-rule="evenodd" />
    </clipPath>
  </defs>
  <g id="Frame 4" clip-path="url(#clip_1)">
    <path d="M45 217L45 118L454.5 118L454.5 187L203 187L173 217L45 217Z" id="Vector"  fill-rule="evenodd" stroke="none" />
    <path d="M24 217L24 40L220 40L250 71.5L476.5 71.5L476.5 187L463 187L463 110L36.5 110L36.5 217L24 217Z" id="Vector-2" fill-rule="evenodd" stroke="none" />
    <path d="M15 461L15 220L175 220L205 190L485 190L485 461L15 461Z" id="Vector-3" fill-rule="evenodd" stroke="none" />
  </g>
</svg>