<?xml version="1.0" encoding="utf-8"?>
<svg width="100%" height="100%" fill="#121b17" viewBox="0 0 500 500" version="1.1" xmlns:xlink="http://www.w3.org/1999/xlink" xmlns="http://www.w3.org/2000/svg">
  <defs>
    <path d="M500 0L500 0L500 500L0 500L0 0L500 0Z" id="path_1" />
    <clipPath id="clip_1">
      <use xlink:href="#path_1" clip-rule="evenodd" fill-rule="evenodd" />
    </clipPath>
  </defs>
  <g id="Rockwell" clip-path="url(#clip_1)">
    <path d="M7.00003 169.006L7.00003 329.012C7.00003 329.012 6.09981 350.961 21.0005 366.513C129.104 476.065 129.004 476.016 129.004 476.016C129.004 476.016 141.879 494.017 170.505 494.517C317.072 494.546 317.01 494.517 317.01 494.517L317.01 494.517C317.01 494.517 331.485 494.262 306.009 483.016C235.133 447.765 306.132 483.015 33.5009 353.513C23.4747 344.612 23.5005 333.012 23.5005 333.012L23.5005 257.509L33.5009 241.508L72.5021 213.507L72.5021 158.505L145.004 158.505L341.006 13.0002C341.006 13.0002 352.633 6.37503 328.011 6.50002C170.635 6.49995 327.742 6.4609 170.505 6.50002C145.879 9.06261 135.004 21.5005 135.004 21.5005C135.004 21.5005 134.502 21.3768 23.5005 132.504C7.17975 150.26 7.00003 169.006 7.00003 169.006Z" id="Vector" fill-rule="evenodd" stroke="none" />
    <path d="M364.004 34L177.853 159.199C177.853 159.199 233.88 153.953 234.505 207.496C235.911 250.501 195.002 256.006 195.002 256.006C195.002 256.006 212.004 261.255 216.505 267.507C223.505 270.633 238.004 324.513 238.004 324.513C238.004 324.513 299.192 173.287 302.005 166.504C307.162 156.439 313.006 158.004 313.006 158.004L364.004 158.004C364.004 158.004 368.483 156.977 371.984 166.483C376.845 178.789 442.008 340.028 442.008 340.028C442.008 340.028 410.394 339.97 390.932 340.028C376.188 339.999 368.004 306.008 368.004 306.008L302.005 306.008L289.005 340.028L186.502 340.028C186.502 340.028 166.709 292.1 162.502 282.007C159.056 273.995 151.502 274.507 151.502 274.507L128.502 274.507L128.502 340.028L72.5004 340.028L72.5004 230.006L34.5 256.006L34 340.028L353.609 474.908C353.609 474.908 366.829 481.081 374.004 474.012C374.993 473.027 482.509 365.027 482.509 365.027C482.509 365.027 494.21 352.129 495.009 337.028C496.209 335.029 495.01 166.504 495.01 166.504C495.01 166.504 495.194 153.253 482.509 136.503C470.884 125.002 401.255 55.8261 384.51 39.0004C373.28 27.1349 364.004 34 364.004 34Z" id="Vector-2" fill-rule="evenodd" stroke="none" />
    <path d="M159.221 196.753C170.384 196.753 179.43 205.799 179.43 216.961L179.43 216.961C179.43 228.124 170.384 237.17 159.221 237.17L128.43 237.17L128.43 196.753L159.221 196.753Z" id="Rectangle" stroke="none" />
    <path d="M335.5 212L355 267L316 267L335.5 212Z" id="Triangle" fill-rule="evenodd" stroke="none" />
  </g>
</svg>