<?xml version="1.0" encoding="utf-8"?>
<svg width="512px" height="512px" viewBox="0 0 512 512" version="1.1" xmlns:xlink="http://www.w3.org/1999/xlink" xmlns="http://www.w3.org/2000/svg">
  <defs>
    <linearGradient gradientUnits="objectBoundingBox" x1="0" y1="0.5" x2="0.9691358" y2="0.5" id="gradient_1">
      <stop offset="0%" stop-color="#33B074" />
      <stop offset="100%" stop-color="#047857" />
    </linearGradient>
    <path d="M512 0L512 0L512 512L0 512L0 0L512 0Z" id="path_1" />
    <path d="M510.98 189.628C510.49 193.375 506.171 195.553 485.358 195.399C384.35 194.523 371.689 209.766 371.689 209.766C371.689 209.766 363.169 214.697 369.012 225.98C375.254 238.015 451.015 326.579 467.429 357.046C478.089 376.817 493.047 411.059 433.604 431.337C375.436 451.598 266.335 431.527 265.615 431.337C239.175 424.691 239.815 420.177 240.11 418.226C240.631 414.489 244.873 412.474 265.674 412.483C361.491 412.565 407.81 405.796 419.02 398.796C425.888 394.545 427.041 388.022 426.406 382.296C425.013 369.803 395.34 333.392 370.819 304.721C345.645 275.224 292.068 223.761 328.188 192.532C371.513 155.078 466.981 171.546 485.653 175.565C505.45 179.801 511.394 186.534 510.98 189.628L510.98 189.628ZM197.947 26.9232C240.124 26.8682 272.914 29.6132 295.362 33.6372C341.027 41.8802 330.275 64.9262 317.297 86.9832C285.804 140.683 200.752 201.096 195.811 204.508C189.328 208.972 192.875 211.575 198.546 209.471C267.511 183.821 337.004 139.58 365.071 85.8402C388.875 40.2572 371.812 18.6352 335.524 8.44624C270.733 -9.78176 203.559 6.91724 197.906 8.58224C189.849 10.9452 173.613 15.4142 174.982 21.3392C175.863 25.1312 179.088 26.9372 197.947 26.9232L197.947 26.9232ZM239.089 244.53C171.865 224.655 98.5811 241.935 87.3951 244.893C70.4731 249.384 60.5611 253.907 61.2551 259.21C61.7761 263.129 66.1051 265.824 86.9001 265.298C136.471 264.1 177.542 265.783 203.504 273.046C235.654 282.028 239.614 298.587 223.692 331.114C216.329 346.148 205.446 361.681 188.956 378.204C156.043 411.23 114.9 432.716 91.7231 444.447C69.1901 455.888 60.9471 449.809 63.4471 438.522C66.5321 424.712 130.462 314.084 130.462 314.084C135.275 305.683 136.123 297.798 130.462 295.435C125.617 293.371 116.829 300.18 107.702 310.741C70.3921 354.08 1.56307 485.935 0.283068 490.263C-0.968932 494.405 2.26507 494.931 3.49907 494.958C32.6331 494.731 211.515 441.825 269.235 333.691C299.63 276.753 284.246 257.908 239.089 244.53L239.089 244.53Z" id="path_2" />
    <clipPath id="clip_1">
      <use xlink:href="#path_1" clip-rule="evenodd" fill-rule="evenodd" />
    </clipPath>
    <clipPath id="clip_2">
      <use xlink:href="#path_2" clip-rule="evenodd" fill-rule="evenodd" />
    </clipPath>
  </defs>
  <g id="solidworks_accessible" clip-path="url(#clip_1)">
    <path d="M512 0L512 0L512 512L0 512L0 0L512 0Z" id="solidworks_accessible" fill="none" stroke="none" />
    <g id="Mask-4-Mask" transform="translate(0.49993896 8.520752)">
      <path d="M510.98 189.628C510.49 193.375 506.171 195.553 485.358 195.399C384.35 194.523 371.689 209.766 371.689 209.766C371.689 209.766 363.169 214.697 369.012 225.98C375.254 238.015 451.015 326.579 467.429 357.046C478.089 376.817 493.047 411.059 433.604 431.337C375.436 451.598 266.335 431.527 265.615 431.337C239.175 424.691 239.815 420.177 240.11 418.226C240.631 414.489 244.873 412.474 265.674 412.483C361.491 412.565 407.81 405.796 419.02 398.796C425.888 394.545 427.041 388.022 426.406 382.296C425.013 369.803 395.34 333.392 370.819 304.721C345.645 275.224 292.068 223.761 328.188 192.532C371.513 155.078 466.981 171.546 485.653 175.565C505.45 179.801 511.394 186.534 510.98 189.628L510.98 189.628ZM197.947 26.9232C240.124 26.8682 272.914 29.6132 295.362 33.6372C341.027 41.8802 330.275 64.9262 317.297 86.9832C285.804 140.683 200.752 201.096 195.811 204.508C189.328 208.972 192.875 211.575 198.546 209.471C267.511 183.821 337.004 139.58 365.071 85.8402C388.875 40.2572 371.812 18.6352 335.524 8.44624C270.733 -9.78176 203.559 6.91724 197.906 8.58224C189.849 10.9452 173.613 15.4142 174.982 21.3392C175.863 25.1312 179.088 26.9372 197.947 26.9232L197.947 26.9232ZM239.089 244.53C171.865 224.655 98.5811 241.935 87.3951 244.893C70.4731 249.384 60.5611 253.907 61.2551 259.21C61.7761 263.129 66.1051 265.824 86.9001 265.298C136.471 264.1 177.542 265.783 203.504 273.046C235.654 282.028 239.614 298.587 223.692 331.114C216.329 346.148 205.446 361.681 188.956 378.204C156.043 411.23 114.9 432.716 91.7231 444.447C69.1901 455.888 60.9471 449.809 63.4471 438.522C66.5321 424.712 130.462 314.084 130.462 314.084C135.275 305.683 136.123 297.798 130.462 295.435C125.617 293.371 116.829 300.18 107.702 310.741C70.3921 354.08 1.56307 485.935 0.283068 490.263C-0.968932 494.405 2.26507 494.931 3.49907 494.958C32.6331 494.731 211.515 441.825 269.235 333.691C299.63 276.753 284.246 257.908 239.089 244.53L239.089 244.53Z" id="Mask" fill="#B1F1CB" fill-rule="evenodd" stroke="none" />
      <g clip-path="url(#clip_2)">
        <path d="M-0.499939 -8.52075L511.5 -8.52075L511.5 503.479L-0.499939 503.479L-0.499939 -8.52075Z" id="Mask-4" fill="url(#gradient_1)" fill-rule="evenodd" stroke="none" />
      </g>
    </g>
  </g>
</svg>