<?xml version="1.0" encoding="utf-8"?>
<svg width="100%" height="100%" fill="#b1f1cb" viewBox="0 0 500 500" version="1.1" xmlns:xlink="http://www.w3.org/1999/xlink" xmlns="http://www.w3.org/2000/svg">
  <defs>
    <path d="M500 0L500 0L500 500L0 500L0 0L500 0Z" id="path_1" />
    <clipPath id="clip_1">
      <use xlink:href="#path_1" clip-rule="evenodd" fill-rule="evenodd" />
    </clipPath>
  </defs>
  <g id="Frame 7" clip-path="url(#clip_1)">
    <path d="M500 25C500 11.191 488.809 0 475 0L25 0C11.191 0 0 11.191 0 25L0 62L160 62L160 92L99 92L99 268L60 268L60 92L0 92L0 274L43 274L99 428.5L153.5 276L202.5 276.5L122 484L72.5 484L0 296L0 475C0 488.809 11.191 500 25 500L475 500C488.809 500 500 488.809 500 475L500 450.502C484.375 490.752 429.5 489.001 429.5 489.001C429.5 489.001 375.875 494.251 358 455.002C332.124 406.55 358 323 358 323C358 323 373.25 265.9 444.5 269C461.05 267.7 489.609 272.438 493.001 274L488 312.5C488 312.5 454 304.125 430.5 311.5C407.5 314.875 400 359 400 359C400 359 424 340 450 344C489.5 344.5 500 378 500 378L500 25ZM177 62L213 62L213 268L177 268L177 62ZM309 62L236 266L274.5 266L295 209L368.5 209L389 266C389 266 427.109 264.938 431.5 266C435.891 267.062 352.5 62 352.5 62L309 62ZM228 348L207 313L268 275.5L313.5 275.5L313.5 484L265.5 484C265.5 484 265.609 326.938 265.5 324.5C265.391 322.062 228 348 228 348Z" id="Rectangle-Subtract-Subtract-Subtract-Subtract-Subtract-Subtract-Subtract-Subtract-Subtract" fill-rule="evenodd" stroke="none" />
    <path d="M305 179L331 101L358 178.5L305 179Z" id="Vector-2" fill-rule="evenodd" stroke="none" />
    <path d="M392 417.5C392 396.237 407.894 379 427.5 379C447.106 379 463 396.237 463 417.5C463 438.763 447.106 456 427.5 456C407.894 456 392 438.763 392 417.5Z" id="Oval" fill-rule="evenodd" stroke="none" />
  </g>
</svg>