<?xml version="1.0" encoding="utf-8"?>
<svg width="100%" height="100%" fill="#b1f1cb" viewBox="0 0 510 510" version="1.1" xmlns:xlink="http://www.w3.org/1999/xlink" xmlns="http://www.w3.org/2000/svg">
  <defs>
    <path d="M510 0L510 0L510 510L0 510L0 0L510 0Z" id="path_1" />
    <clipPath id="clip_1">
      <use xlink:href="#path_1" clip-rule="evenodd" fill-rule="evenodd" />
    </clipPath>
  </defs>
  <g id="Frame" clip-path="url(#clip_1)">
    <path d="M126 55L501 37L311.838 8.01149L6.50001 19.9L126 55Z" id="Vector-2"  stroke="none" />
    <path d="M121 509L121 63L0 27L0 380L121 509Z" id="Vector-3"  stroke="none" />
    <path d="M507 43.03L132 63L132 509L306.5 477.501C306.5 477.501 306.55 478.026 306.5 421C221.25 425.175 173.5 360.125 173.5 283C173.5 205.875 217.976 130.026 306.5 112.5C306.55 83.025 306.5 83.5001 306.5 83.5001C306.5 83.5001 319.455 83.0401 331.58 83.0401C343.705 83.0401 355 83.5001 355 83.5001L355 123.5L371 131.5L393.5 103C393.5 103 405.545 104.765 424.5 127C443.455 149.235 445 154.5 445 154.5L424.5 184L432 207.5L464 205.5C464 205.5 467.175 210.325 467.5 245.5C467.825 280.675 464.5 289 464.5 289L431.5 293L423 318L446.5 343C446.5 343 444.75 348.75 427.5 374.5C410.25 400.25 396.5 409.5 396.5 409.5L371.5 386.5L355.5 395L356 437C356 437 345.618 441.312 332.574 445C319.529 448.689 306.52 450.01 306.52 450.01L306.499 477.494L306.995 477.401L507 440L507 43.03Z" id="Vector-4" stroke="none" />
  </g>
</svg>