<?xml version="1.0" encoding="utf-8"?>
<svg width="197px" height="170px" viewBox="0 0 197 170" version="1.1" xmlns:xlink="http://www.w3.org/1999/xlink" xmlns="http://www.w3.org/2000/svg">
  <defs>
    <linearGradient gradientUnits="objectBoundingBox" x1="0" y1="0.5" x2="0.9691358" y2="0.5" id="gradient_1">
      <stop offset="0%" stop-color="#33B074" />
      <stop offset="100%" stop-color="#047857" />
    </linearGradient>
    <path d="M197 0L197 0L197 170L0 170L0 0L197 0Z" id="path_1" />
    <path d="M98.16 102.01L42.1757 5.09912L39.23 0L0 0L2.94508 5.10108L98.16 170.02L196.32 0L157.06 0L98.16 102.01Z" id="path_2" />
    <path d="M98.16 29.0372L81.35 2.00996e-14L75.5 2.00996e-14L0 2.00996e-14L2.94 5.1L78.4487 5.1L98.16 39.26L117.879 5.1L193.38 5.1L196.325 0L120.82 7.80656e-15L114.973 2.00996e-14L98.16 29.0372Z" id="path_3" />
    <clipPath id="clip_1">
      <use xlink:href="#path_1" clip-rule="evenodd" fill-rule="evenodd" />
    </clipPath>
    <clipPath id="clip_2">
      <use xlink:href="#path_2" clip-rule="evenodd" fill-rule="evenodd" />
    </clipPath>
    <clipPath id="clip_3">
      <use xlink:href="#path_3" clip-rule="evenodd" fill-rule="evenodd" />
    </clipPath>
  </defs>
  <g id="vue_accessible" clip-path="url(#clip_1)">
    <path d="M197 0L197 0L197 170L0 170L0 0L197 0Z" id="vue_accessible" fill="none" stroke="none" />
    <g id="Mask-7-Mask">
      <path d="M98.16 102.01L42.1757 5.09912L39.23 0L0 0L2.94508 5.10108L98.16 170.02L196.32 0L157.06 0L98.16 102.01Z" id="Mask" fill="#B1F1CB" fill-rule="evenodd" stroke="none" />
      <g clip-path="url(#clip_2)">
        <path d="M0 0.00012207L197 0.00012207L197 170L0 170L0 0.00012207Z" id="Mask-7" fill="url(#gradient_1)" fill-rule="evenodd" stroke="none" />
      </g>
    </g>
    <g id="Mask-8-Mask">
      <path d="M98.16 29.0372L81.35 2.00996e-14L75.5 2.00996e-14L0 2.00996e-14L2.94 5.1L78.4487 5.1L98.16 39.26L117.879 5.1L193.38 5.1L196.325 0L120.82 7.80656e-15L114.973 2.00996e-14L98.16 29.0372Z" id="Mask" fill="#B1F1CB" fill-rule="evenodd" stroke="none" />
      <g clip-path="url(#clip_3)">
        <path d="M0 0L197 0L197 170L0 170L0 0Z" id="Mask-8" fill="url(#gradient_1)" fill-rule="evenodd" stroke="none" />
      </g>
    </g>
  </g>
</svg>